<svg width="26" height="25" viewBox="0 0 26 25" fill="none" xmlns="http://www.w3.org/2000/svg">
<path d="M1 9.93062V7.19355H1.85714C1.85714 7.19355 2.73312 5.14241 3.57143 4.09677C5.13112 2.15135 6.46881 1 8.71429 1C10.9598 1 12.2975 2.15135 13.8571 4.09677C14.6955 5.14241 15.8855 7.19355 15.8855 7.19355V3.9C15.8855 3.62386 16.1094 3.4 16.3855 3.4L18.1429 3.4H19.0071C19.4972 3.4 19.9151 3.75523 19.994 4.23895L21.4444 13.1274L24.733 14.8594C24.8972 14.9459 25 15.1162 25 15.3018V19.2C25 19.7523 24.5523 20.2 24 20.2H15.8855H6.22667L1.2992 15.3592C1.10781 15.1712 1 14.9142 1 14.6459V9.93062Z" fill="#D9D9D9"/>
<path d="M15.8855 7.19355V13.0684M15.8855 7.19355H1.85714M15.8855 7.19355C15.8855 7.19355 14.6955 5.14241 13.8571 4.09677C12.2975 2.15135 10.9598 1 8.71429 1C6.46881 1 5.13112 2.15135 3.57143 4.09677C2.73312 5.14241 1.85714 7.19355 1.85714 7.19355M15.8855 7.19355V3.9C15.8855 3.62386 16.1094 3.4 16.3855 3.4L18.1429 3.4H19.0071C19.4972 3.4 19.9151 3.75523 19.994 4.23895L21.4444 13.1274M15.8855 20.2H6.22667L1.2992 15.3592C1.10781 15.1712 1 14.9142 1 14.6459V9.93062V7.19355H1.85714M15.8855 20.2H24C24.5523 20.2 25 19.7523 25 19.2V15.3018C25 15.1162 24.8972 14.9459 24.733 14.8594L21.4444 13.1274M15.8855 20.2V13.0684M21.4444 13.1274L15.8855 13.0684M4.42857 9.4V13M8.71429 9.4V15.0653M13 9.4V16.6" stroke="black" stroke-width="1.5"/>
<circle cx="6.71436" cy="20.4" r="3.25" fill="#D9D9D9" stroke="black" stroke-width="1.5"/>
<circle cx="20.4287" cy="20.4" r="3.25" fill="#D9D9D9" stroke="black" stroke-width="1.5"/>
</svg>
