<svg aria-hidden="true" style="position: absolute; width: 0; height: 0; overflow: hidden;" version="1.1" xmlns="http://www.w3.org/2000/svg" xmlns:xlink="http://www.w3.org/1999/xlink">
<defs>
<symbol id="icon-call" viewBox="0 0 32 32">
<path d="M21.337 30.167l-4.696-9.062c-0.009 0.005-2.633 1.293-2.753 1.348-2.987 1.448-9.067-10.429-6.146-11.994l2.777-1.368-4.657-9.091-2.809 1.385c-2.185 1.14-3.085 3.556-3.053 6.556 0.1 9.266 9.080 24.1 16.415 24.064 0.764-0.002 1.489-0.172 2.138-0.475l-0.031 0.013c0.162-0.073 2.803-1.372 2.814-1.377zM18.003 12.002c1.104 0 2 0.896 2 2s-0.896 2-2 2-2-0.896-2-2 0.896-2 2-2zM30.006 12.002c1.104 0 2 0.896 2 2s-0.896 2-2 2-2-0.896-2-2 0.896-2 2-2zM24.005 12.002c1.104 0 2 0.896 2 2s-0.896 2-2 2-2-0.896-2-2 0.896-2 2-2z"></path>
</symbol>
<symbol id="icon-close" viewBox="0 0 32 32">
<path d="M16 14.573l7.625-7.627c0.181-0.181 0.431-0.293 0.708-0.293 0.553 0 1.001 0.448 1.001 1.001 0 0.277-0.112 0.527-0.293 0.708l-7.627 7.625 7.625 7.625c0.181 0.181 0.293 0.431 0.293 0.708 0 0.553-0.448 1.001-1.001 1.001-0.276 0-0.526-0.112-0.707-0.293v0l-7.625-7.625-7.625 7.625c-0.181 0.181-0.431 0.293-0.707 0.293-0.553 0-1.001-0.448-1.001-1.001 0-0.277 0.112-0.527 0.293-0.708v0l7.625-7.625-7.627-7.625c-0.16-0.177-0.257-0.412-0.257-0.67 0-0.554 0.449-1.003 1.003-1.003 0.258 0 0.494 0.098 0.671 0.258l-0.001-0.001z"></path>
</symbol>
<symbol id="icon-location-point" viewBox="0 0 22 32">
<path d="M10.972 2.667c4.262 0 8.001 3.491 8.001 7.47 0 4.124-3.324 9.51-8.001 16.882-4.676-7.372-8.001-12.758-8.001-16.882 0-3.978 3.739-7.469 8.001-7.469zM10.972 0c-5.598 0-10.667 4.537-10.667 10.136s4.626 12.281 10.667 21.866c6.041-9.585 10.667-16.267 10.667-21.866s-5.068-10.136-10.667-10.136zM10.972 14.667c-2.209 0-4-1.791-4-4v0c0-2.209 1.791-4 4-4v0c2.209 0 4 1.791 4 4v0c0 2.209-1.791 4-4 4v0z"></path>
</symbol>
<symbol id="icon-burger" viewBox="0 0 55 32">
<path d="M54.096 29.124c0-1.104-0.896-2-2-2h-49.333c-1.086 0.024-1.958 0.91-1.958 2s0.871 1.976 1.955 2l0.002 0h49.333c1.104 0 2-0.896 2-2zM54.096 15.791c0-1.104-0.896-2-2-2h-49.333c-1.086 0.024-1.958 0.91-1.958 2s0.871 1.976 1.955 2l0.002 0h49.333c1.104 0 2-0.896 2-2zM54.096 2.457c0-1.104-0.896-2-2-2h-49.333c-1.086 0.024-1.958 0.91-1.958 2s0.871 1.976 1.955 2l0.002 0h49.333c1.104 0 2-0.896 2-2z"></path>
</symbol>
<symbol id="icon-facebook" viewBox="0 0 16 32">
<path d="M4 10.666h-4v5.334h4v16h6.666v-16h4.856l0.477-5.334h-5.333v-2.223c0-1.274 0.256-1.777 1.487-1.777h3.847v-6.667h-5.078c-4.795 0-6.923 2.111-6.923 6.154v4.513z"></path>
</symbol>
<symbol id="icon-instagram" viewBox="0 0 32 32">
<path d="M16 2.884c4.272 0 4.779 0.016 6.466 0.094 4.336 0.197 6.361 2.255 6.559 6.559 0.077 1.687 0.092 2.194 0.092 6.465 0 4.274-0.016 4.779-0.092 6.465-0.199 4.3-2.219 6.361-6.559 6.559-1.688 0.077-2.192 0.093-6.466 0.093-4.272 0-4.779-0.016-6.465-0.093-4.347-0.199-6.362-2.265-6.559-6.56-0.078-1.687-0.094-2.192-0.094-6.465 0-4.272 0.018-4.777 0.094-6.465 0.199-4.303 2.218-6.362 6.559-6.559 1.688-0.076 2.194-0.092 6.465-0.092zM16 0c-4.345 0-4.889 0.018-6.596 0.096-5.811 0.267-9.040 3.49-9.306 9.306-0.079 1.708-0.098 2.252-0.098 6.598s0.018 4.89 0.096 6.598c0.267 5.811 3.49 9.040 9.306 9.306 1.708 0.078 2.252 0.096 6.598 0.096s4.89-0.018 6.598-0.096c5.805-0.267 9.043-3.491 9.305-9.306 0.079-1.707 0.098-2.253 0.098-6.598s-0.018-4.889-0.096-6.596c-0.262-5.805-3.489-9.040-9.305-9.306-1.709-0.079-2.254-0.098-6.599-0.098zM16 7.784c-4.537 0-8.216 3.679-8.216 8.216s3.678 8.218 8.216 8.218 8.216-3.679 8.216-8.218c0-4.537-3.678-8.216-8.216-8.216zM16 21.334c-2.945 0-5.334-2.387-5.334-5.334 0-2.945 2.388-5.334 5.334-5.334s5.334 2.388 5.334 5.334c0 2.947-2.388 5.334-5.334 5.334zM24.541 5.54c-0 0-0 0-0 0-1.061 0-1.92 0.859-1.921 1.92v0c0 1.060 0.86 1.92 1.921 1.92 1.060 0 1.919-0.86 1.919-1.92s-0.858-1.92-1.919-1.92z"></path>
</symbol>
<symbol id="icon-location" viewBox="0 0 40 32">
<path d="M17.231 2.872c3.060 0 5.744 2.484 5.744 5.316 0 2.944-2.462 7.095-5.744 12.293-3.283-5.198-5.744-9.349-5.744-12.293 0-2.832 2.684-5.316 5.744-5.316zM17.231 0c-4.52 0-8.615 3.666-8.615 8.187s3.737 9.918 8.615 17.659c4.879-7.741 8.615-13.139 8.615-17.659s-4.094-8.187-8.615-8.187zM17.231 11.487c-0 0-0 0-0 0-1.586 0-2.871-1.285-2.871-2.871 0-0 0-0 0-0.001v0c0-0 0-0 0-0.001 0-1.586 1.285-2.871 2.871-2.871 0 0 0 0 0.001 0h-0c0 0 0 0 0 0 1.586 0 2.871 1.285 2.871 2.871 0 0 0 0 0 0.001v-0c0 0 0 0 0 0.001 0 1.586-1.285 2.871-2.871 2.871-0 0-0 0-0.001 0h0zM28.718 20.102h-4.501c-1 1.691-1.585 2.628-2.179 3.559l0.41-0.687h4.496l0.718 1.436h-6.123l-0.494 0.781-0.415 0.655h0.801l1.232 2.872h-10.752l1.232-2.872h0.688l-0.415-0.655-0.492-0.781h-2.932l-1.452-1.436h3.475c-0.225-0.313-0.81-1.25-1.385-2.194l-0.384-0.678h-4.501l-5.744 11.488h34.462l-5.744-11.488zM10.347 28.718h-5.7l2.533-5.066 2.177 2.194h2.224l-1.234 2.872zM22.994 25.846h5.385l1.436 2.872h-5.589l-1.232-2.872zM34.215 9.258c2.186 0 4.102 2.011 4.102 4.303 0 2.383-1.758 5.744-4.102 9.952-2.345-4.208-4.102-7.568-4.102-9.951 0-2.292 1.917-4.303 4.102-4.303zM34.215 6.933c-3.229 0-6.154 2.968-6.154 6.628 0 3.659 2.668 8.029 6.154 14.295 3.486-6.266 6.154-10.635 6.154-14.295s-2.924-6.628-6.154-6.628zM34.215 16.233c-1.133 0-2.051-1.041-2.051-2.325s0.918-2.325 2.051-2.325c1.133 0 2.051 1.040 2.051 2.325s-0.918 2.325-2.051 2.325z"></path>
</symbol>
<symbol id="icon-mail" viewBox="0 0 43 32">
<path d="M0 0v32h42.667v-32h-42.667zM38.254 3.555l-16.921 13.712-16.921-13.712h33.841zM3.555 28.445v-21.008l17.778 14.407 17.778-14.407v21.008h-35.556z"></path>
</symbol>
<symbol id="icon-money" viewBox="0 0 54 32">
<path d="M43.423 1.83l-22.913 10.684c-1.265 0.59-1.829 2.060-1.259 3.282l6.194 13.283c0.57 1.222 2.059 1.736 3.323 1.146l22.911-10.684c1.265-0.59 1.829-2.060 1.259-3.282l-6.194-13.283c-0.57-1.222-2.059-1.736-3.323-1.146zM50.392 16.774c0.142 0.306 0.002 0.674-0.315 0.821l-21.766 10.149c-0.316 0.148-0.689 0.020-0.83-0.286l-3.355-7.195 22.911-10.684 3.355 7.195zM45.488 6.258l-22.913 10.683-0.774-1.66c-0.142-0.306-0.002-0.673 0.315-0.821l21.767-10.149c0.316-0.148 0.689-0.020 0.83 0.286l0.775 1.661zM38.274 17.707l-10.31 4.808-0.516-1.107 10.31-4.808 0.517 1.107zM35.87 21.524l-6.874 3.205-0.516-1.107 6.873-3.205 0.517 1.107zM46.293 13.967l-3.436 1.603-0.517-1.107 3.437-1.603 0.517 1.107zM3.81 15.968c0.001 2.805 2.275 5.078 5.080 5.080h0c2.805-0.002 5.078-2.275 5.079-5.079v-0c-0-2.805-2.274-5.079-5.079-5.080h-0c-2.805 0-5.079 2.274-5.080 5.080v0zM11.402 15.714h0.533v0.507h-0.507c-0.007 0.556-0.142 1.080-0.377 1.544l0.009-0.020-0.834-0.229c0.185-0.487 0.387-1.131 0.273-1.638-0.132-0.584-0.733-0.705-1.022-0.059-0.218 0.472-0.408 1.92-1.646 1.92-0.693 0-1.313-0.53-1.448-1.516h-0.54v-0.509h0.517c0.016-0.448 0.093-0.873 0.223-1.274l-0.009 0.033 0.835 0.184c-0.136 0.39-0.26 0.821-0.235 1.24 0.044 0.756 0.699 0.823 0.973 0.295 0.408-0.869 0.712-2.002 1.8-2.002 0.872-0.002 1.339 0.681 1.455 1.523zM0 31.206h17.778v-30.476h-17.778v30.476zM11.964 3.269c0.655 1.469 1.805 2.619 3.234 3.259l0.040 0.016v18.85c-1.469 0.655-2.619 1.805-3.258 3.234l-0.016 0.040h-6.151c-0.655-1.469-1.805-2.619-3.234-3.258l-0.040-0.016v-18.85c1.469-0.655 2.619-1.806 3.258-3.234l0.016-0.040h6.151z"></path>
</symbol>
<symbol id="icon-phone" viewBox="0 0 23 32">
<path fill="none" stroke="currentColor"  stroke-linejoin="round" stroke-linecap="round" stroke-miterlimit="4" stroke-width="2.4373" d="M19.658 1.284h-15.849c-1.25 0-2.264 1.014-2.264 2.264v0 24.904c0 1.251 1.014 2.264 2.264 2.264h15.849c1.25 0 2.264-1.013 2.264-2.264v-24.904c0-1.25-1.014-2.264-2.264-2.264zM10.601 25.056h2.264"></path>
</symbol>
<symbol id="icon-quality" viewBox="0 0 19 32">
<path d="M8.6 12.721l-3-2.909 1.239-1.239 1.761 1.671 3.762-3.856 1.238 1.24-5 5.094zM18.834 7.629c-0.643 1.88-0.645 1.519 0 3.407 0.067 0.196 0.099 0.396 0.099 0.593 0 0.599-0.296 1.178-0.82 1.542-1.674 1.16-1.454 0.868-2.083 2.756-0.264 0.788-1.027 1.32-1.887 1.32h-0.004c-2.065-0.006-1.707-0.117-3.37 1.052-0.325 0.23-0.729 0.368-1.166 0.368-0.001 0-0.002 0-0.003 0h0c-0.001 0-0.002 0-0.003 0-0.436 0-0.84-0.137-1.171-0.371l0.006 0.004c-1.665-1.17-1.306-1.059-3.37-1.052h-0.005c-0.86 0-1.622-0.532-1.884-1.32-0.631-1.889-0.415-1.598-2.083-2.757-0.527-0.365-0.823-0.944-0.823-1.542 0-0.197 0.032-0.397 0.099-0.592 0.644-1.881 0.645-1.519 0-3.407-0.062-0.177-0.099-0.381-0.099-0.593v-0c0-0.6 0.296-1.177 0.822-1.542 1.668-1.157 1.452-0.864 2.083-2.757 0.262-0.788 1.025-1.32 1.884-1.32h0.005c2.060 0.007 1.695 0.127 3.37-1.053 0.325-0.229 0.729-0.365 1.165-0.365 0.002 0 0.004 0 0.006 0h-0c0.411 0 0.82 0.121 1.168 0.366 1.664 1.17 1.306 1.060 3.37 1.053h0.005c0.861 0 1.622 0.532 1.886 1.32 0.631 1.888 0.41 1.596 2.083 2.756 0.526 0.364 0.822 0.943 0.822 1.541 0 0.197-0.032 0.399-0.099 0.593zM15.933 9.334c0-3.497-2.836-6.334-6.333-6.334s-6.333 2.836-6.333 6.334c0 3.497 2.836 6.333 6.333 6.333s6.333-2.838 6.333-6.333zM12.267 20v6.632l-2.594-1.966-2.74 2.033v-6.7h-2.667v12l5.39-4 5.277 4v-12h-2.667z"></path>
</symbol>
<symbol id="icon-support" viewBox="0 0 32 32">
<path d="M16.888 30.544l-3.716-7.172-2.179 1.067c-2.364 1.146-7.177-8.255-4.865-9.493l2.197-1.082-3.686-7.196-2.223 1.097c-7.602 3.963 4.468 27.426 12.244 23.871 0.128-0.058 2.218-1.087 2.226-1.091zM23.424 27.073l1.388 2.28c-1.283 0.861-2.768 1.561-4.355 2.021l-0.113 0.028-1.245-2.432c1.643-0.399 3.088-1.053 4.371-1.927l-0.046 0.030zM27.32 23.044l2.509 1.003c-0.936 1.585-2.071 2.937-3.393 4.077l-0.021 0.018-1.409-2.314c0.881-0.809 1.646-1.723 2.281-2.728l0.033-0.055zM28.252 21.263c0.684-1.547 1.082-3.351 1.082-5.248 0-0.005 0-0.011 0-0.016v0.001c0-7.359-5.975-13.334-13.334-13.334-0.005 0-0.010 0-0.016 0-3.333 0-6.38 1.228-8.712 3.257l0.016-0.014-1.244-2.432c2.698-2.167 6.163-3.478 9.935-3.478 0.007 0 0.014 0 0.021 0h-0.001c8.831 0 16 7.169 16 16 0 2.218-0.453 4.332-1.271 6.254l-2.477-0.991z"></path>
<path d="M12.747 14.171v-0.96l2.469-2.331c0.195-0.177 0.338-0.335 0.43-0.475s0.152-0.268 0.183-0.384c0.037-0.116 0.055-0.223 0.055-0.32 0-0.256-0.089-0.451-0.265-0.585-0.171-0.14-0.424-0.21-0.759-0.21-0.004-0-0.010-0-0.015-0-0.266 0-0.519 0.057-0.746 0.16l0.011-0.005c-0.226 0.104-0.418 0.265-0.576 0.485l-1.079-0.695c0.244-0.366 0.585-0.655 1.024-0.869s0.944-0.32 1.518-0.32c0.475 0 0.89 0.079 1.243 0.238 0.359 0.152 0.637 0.369 0.832 0.649 0.201 0.28 0.302 0.616 0.302 1.006 0 0.207-0.027 0.415-0.082 0.622-0.049 0.201-0.153 0.415-0.311 0.64-0.153 0.225-0.378 0.479-0.677 0.759l-2.048 1.929-0.283-0.539h3.611v1.207h-4.837zM18.024 12.827v-0.997l3.017-4.059h1.554l-2.953 4.059-0.722-0.21h5.038v1.207h-5.934zM21.471 14.171v-1.344l0.046-1.207v-1.198h1.399v3.749h-1.445zM16.603 25.143l2.578-5.833 0.384 0.64h-3.447l0.658-0.695v1.737h-1.317v-2.249h5.129v0.96l-2.377 5.44h-1.609zM12.446 15.314h11.594v0.457h-11.594v-0.457z"></path>
</symbol>
<symbol id="icon-telegram" viewBox="0 0 41 32">
<path d="M15.891 21.090l-0.669 8.934c0.958 0 1.373-0.39 1.87-0.858l4.494-4.073 9.314 6.465c1.706 0.903 2.912 0.43 3.37-1.489l6.115-27.154c0.541-2.394-0.91-3.332-2.577-2.745l-35.928 13.043c-2.451 0.9-2.415 2.198-0.417 2.785l9.186 2.706 21.337-12.656c1.002-0.631 1.915-0.282 1.164 0.349l-17.259 14.693z"></path>
</symbol>
<symbol id="icon-timer" viewBox="0 0 32 32">
<path d="M21.213 17.787l3.515-5.368-0.605-0.541-4.897 4.132c-0.9-0.184-1.869 0.091-2.525 0.824-0.421 0.469-0.678 1.093-0.678 1.777 0 0.789 0.343 1.498 0.888 1.987l0.003 0.002c0.469 0.421 1.093 0.678 1.777 0.678 0.789 0 1.498-0.343 1.986-0.888l0.002-0.003c0.656-0.733 0.82-1.727 0.536-2.6zM16 3.592v-3.592h5.334v3.592c-1.919-0.324-3.456-0.317-5.334 0zM27.801 6.344l1.876-1.876 1.885 1.885-1.761 1.761c-0.608-0.636-1.262-1.216-1.959-1.741l-0.041-0.030zM2.667 12h10.667v2.666h-10.667v-2.666zM0 17.334h10.666v2.666h-10.666v-2.666zM4 22.666h9.334v2.667h-9.334v-2.667zM32 18.666c0 7.365-5.969 13.334-13.334 13.334-3.72 0-7.066-1.54-9.481-4h4.373c1.517 0.841 3.252 1.334 5.108 1.334 5.882 0 10.667-4.785 10.667-10.667s-4.785-10.666-10.667-10.666c-1.856 0-3.59 0.492-5.108 1.334h-4.373c2.415-2.46 5.761-4 9.481-4 7.365 0 13.334 5.969 13.334 13.333z"></path>
</symbol>
<symbol id="icon-viber" viewBox="0 0 31 32">
<path d="M16.689 18.326s0.569 0.051 0.875-0.329l0.598-0.751c0.288-0.373 0.984-0.611 1.665-0.232 0.901 0.509 2.067 1.309 2.865 2.055 0.44 0.37 0.543 0.917 0.243 1.494l-0.003 0.012c-0.309 0.544-0.721 1.055-1.242 1.53l-0.012 0.008c-0.587 0.489-1.262 0.773-1.983 0.539l-0.013-0.019c-1.296-0.366-4.405-1.952-6.387-3.532-3.241-2.557-5.545-6.776-6.183-9.037l-0.020-0.014c-0.235-0.724 0.052-1.399 0.538-1.984l0.010-0.011c0.476-0.521 0.985-0.935 1.531-1.243l0.012-0.003c0.576-0.3 1.123-0.199 1.495 0.242 0.489 0.505 1.408 1.721 2.053 2.865 0.379 0.68 0.142 1.377-0.23 1.664l-0.752 0.598c-0.379 0.306-0.329 0.876-0.329 0.876s1.112 4.208 5.271 5.269zM23.232 14.838c0 0 0 0 0 0-0.223 0-0.404-0.18-0.405-0.402v-0c-0.019-2.44-0.753-4.384-2.179-5.776-1.43-1.393-3.236-2.108-5.37-2.123-0.222-0.001-0.401-0.181-0.401-0.403 0-0.002 0-0.004 0-0.005v0c0.001-0.222 0.181-0.402 0.403-0.402 0 0 0.001 0 0.001 0h0.002c2.35 0.016 4.344 0.808 5.929 2.352 1.587 1.55 2.402 3.687 2.422 6.351 0 0.001 0 0.002 0 0.003 0 0.223-0.179 0.403-0.401 0.405h-0.003zM21.105 14.007h-0.010c-0.22-0.005-0.396-0.185-0.396-0.405 0-0.003 0-0.006 0-0.009v0c0.032-1.384-0.364-2.504-1.208-3.425-0.84-0.918-1.994-1.42-3.527-1.532-0.211-0.016-0.376-0.192-0.376-0.405 0-0.010 0-0.020 0.001-0.029l-0 0.001c0.017-0.211 0.192-0.375 0.405-0.375 0.010 0 0.020 0 0.030 0.001l-0.001-0c1.725 0.127 3.093 0.73 4.065 1.793 0.977 1.066 1.456 2.409 1.42 3.989-0.005 0.219-0.184 0.395-0.403 0.396h-0zM19.028 13.31c-0.217-0-0.393-0.17-0.404-0.384l-0-0.001c-0.068-1.373-0.716-2.046-2.036-2.117-0.214-0.011-0.384-0.188-0.384-0.404 0-0.223 0.181-0.405 0.405-0.405 0.007 0 0.015 0 0.022 0.001l-0.001-0c1.744 0.094 2.712 1.092 2.802 2.885 0 0.006 0.001 0.014 0.001 0.021 0 0.216-0.17 0.393-0.384 0.403l-0.001 0-0.020 0.001zM28.117 17.936c-0.807 6.503-5.563 6.913-6.44 7.195-0.373 0.12-3.843 0.983-8.203 0.698 0 0-3.251 3.92-4.265 4.94-0.159 0.159-0.344 0.223-0.47 0.193-0.174-0.043-0.222-0.25-0.22-0.552l0.027-5.354c-6.349-1.764-5.98-8.395-5.908-11.865s0.724-6.315 2.662-8.227c3.48-3.152 10.649-2.682 10.649-2.682 6.055 0.027 8.956 1.849 9.629 2.46 2.233 1.912 3.371 6.489 2.539 13.194zM27.247 3.119c-0.795-0.731-4.009-3.063-11.165-3.096 0 0-8.44-0.509-12.555 3.267-2.291 2.291-3.096 5.64-3.182 9.797-0.084 4.157-0.196 11.944 7.312 14.056l0.008 0.003-0.005 3.221s-0.046 1.305 0.812 1.572c1.038 0.322 1.648-0.669 2.642-1.738 0.544-0.587 1.294-1.448 1.863-2.107 5.135 0.429 9.082-0.556 9.532-0.701 1.036-0.337 6.902-1.088 7.858-8.876 0.984-8.030-0.477-13.107-3.117-15.398z"></path>
</symbol>
<symbol id="icon-weight" viewBox="0 0 28 32">
<path d="M19.917 24.024l0.855-12.17c0.017-0.238 0.215-0.425 0.456-0.425h0.755c0.238 0 0.434 0.183 0.455 0.416l0 0.002 1.106 12.603h0.229c0.253 0 0.457 0.205 0.457 0.457v0 3.093c0 0.253-0.205 0.457-0.457 0.457v0h-21.944c-0.252 0-0.457-0.205-0.457-0.457v0-3.093c0-0.253 0.205-0.457 0.457-0.457v0h17.632c0.241-0 0.439-0.187 0.456-0.424l0-0.001zM2.146 31.545v-1.706c0-0.253 0.205-0.457 0.457-0.457v0h20.483c0.253 0 0.457 0.205 0.457 0.457v0 1.706c0 0.253-0.205 0.457-0.457 0.457v0h-1.552c-0.147-0-0.278-0.070-0.362-0.178l-0.001-0.001-0.671-0.875c-0.084-0.109-0.216-0.179-0.363-0.179 0 0-0 0-0 0h-14.974c-0.171 0-0.319 0.094-0.398 0.232l-0.001 0.002-0.426 0.764c-0.080 0.141-0.228 0.234-0.399 0.235h-1.337c-0.252 0-0.457-0.205-0.457-0.457v0z"></path>
<path d="M8.286 22.249c-0.352 1.324-1.539 2.285-2.951 2.286h-0c-1.683-0.001-3.047-1.366-3.047-3.049 0-0.56 0.151-1.086 0.415-1.537l-0.008 0.014h-1.17v-1.524h7.559l2.347-7.619h3.261c0.328 0 0.619 0.209 0.722 0.521l1.351 4.051 1.019 0.509c0.302 0.154 0.505 0.462 0.505 0.818 0 0 0 0 0 0v-0 3.245c0 0.421-0.341 0.762-0.762 0.762h-0.858c0.061 0.228 0.096 0.49 0.096 0.76 0 1.684-1.365 3.049-3.048 3.049h-0c-1.412-0.001-2.6-0.961-2.947-2.265l-0.005-0.021h-2.478zM5.334 20.344c0.631 0 1.143 0.512 1.143 1.143s-0.512 1.143-1.143 1.143v0c-0.631 0-1.143-0.512-1.143-1.143s0.512-1.143 1.143-1.143v0zM13.716 20.344c0.631 0 1.143 0.512 1.143 1.143s-0.512 1.143-1.143 1.143v0c-0.631 0-1.143-0.512-1.143-1.143s0.512-1.143 1.143-1.143v0zM15.087 16.458h-3.657l-0.753 1.981-0.491 1.524h-2.213c0.107 0.181 0.198 0.369 0.267 0.605l0.045 0.157h2.475c0.065-0.252 0.154-0.472 0.267-0.677l-0.008 0.015c0.523-0.973 1.533-1.623 2.695-1.623 0.774 0 1.481 0.288 2.019 0.764l-0.003-0.003h1.033v-2.107l-1.676-0.636zM8.382 17.677h-6.858l-1.524-6.096h1.62l3.753-3.531c0.194-0.183 0.423-0.279 0.655-0.279 0.441 0 0.79 0.331 0.977 0.735l1.399 3.008 0.74-2.219h5.334v0.762h-3.81l-2.286 7.62zM3.243 13.106h-1.29l0.762 3.048h4.533l0.914-3.047h-2.141l0.628 2.286h-0.794l-0.592-2.286h-1.263l0.628 2.286h-0.794l-0.592-2.286zM14.141 12.344h-1.586l-0.667 2.438h2.972l-0.718-2.438zM3.844 11.582h2.91l-0.885-1.905-2.025 1.905z"></path>
<path d="M21.492 0c3.472 0 6.276 2.702 6.4 6.172 0.117 3.288-2.322 6.104-5.49 6.564-0.151 0.022-0.303 0.038-0.457 0.049v-1.355c0.138-0.014 0.323-0.059 0.457-0.084 2.408-0.45 4.233-2.645 4.119-5.173-0.123-2.712-2.314-4.8-5.029-4.8s-4.905 2.088-5.029 4.8c-0.129 2.838 2.188 5.257 5.029 5.257v1.371c-3.598 0-6.529-3.033-6.4-6.629 0.124-3.47 2.928-6.172 6.4-6.172z"></path>
<path d="M23.316 6.4c-0 1.010-0.819 1.828-1.829 1.828s-1.829-0.819-1.829-1.829 0.819-1.829 1.829-1.829c0.337 0 0.652 0.091 0.923 0.25l-0.009-0.005 1.372-1.159h0.914v0.914l-1.429 1.372c0.038 0.146 0.058 0.299 0.058 0.457z"></path>
</symbol>
<symbol id="icon-logo" viewBox="0 0 51 32">
<path d="M46.876 16.896c-0.567 0.331-1.052 1.294-1.273 2.545-0.17 0.964-0.133 1.072 0.14 0.345 0.383-1.021 0.721-1.546 1.009-1.546 0.258 0 0.545 0.194 0.707 0.482 0.302 0.525 0.398 1.114 0.442 2.703 0.037 1.366 0.059 1.517 0.199 1.718 0.582 0.834 0.758 0.23 0.685-2.343-0.059-2.193-0.302-3.3-0.832-3.825-0.31-0.302-0.663-0.324-1.075-0.079z"></path>
<path d="M46.744 19.513c0 0.036 0.081 0.144 0.177 0.23 0.361 0.33 0.508 0.826 0.545 1.783 0.015 0.489 0.059 0.884 0.096 0.884 0.111 0 0.163-0.51 0.118-1.207-0.037-0.561-0.081-0.755-0.25-1.072-0.184-0.345-0.685-0.797-0.685-0.618z"></path>
<path d="M46.295 19.894c-0.287 0.166-0.582 1.323-0.582 2.258 0 0.338 0.074 0.28 0.25-0.187 0.258-0.676 0.648-0.899 0.972-0.554l0.14 0.151 0.044-0.208c0.074-0.36-0.037-1.078-0.199-1.294s-0.427-0.28-0.626-0.165zM47.193 23.539c-0.133 0.467-0.258 0.891-0.28 0.942-0.022 0.057 0.007 0.072 0.088 0.043 0.169-0.065 0.375-0.496 0.552-1.15 0.177-0.683 0.177-0.676 0.015-0.676-0.111 0-0.184 0.165-0.376 0.841zM46.008 24.703c0 0.072 0.22 0.173 0.272 0.122 0.022-0.014-0.037-0.064-0.118-0.115-0.088-0.043-0.154-0.051-0.154-0.007z"></path>
<path d="M35.148 1.541c-0.567 0.014-2.834 0.101-5.044 0.208-2.209 0.101-5.632 0.259-7.605 0.345-1.973 0.093-3.608 0.187-3.63 0.208-0.052 0.043 0.096 0.69 0.176 0.813 0.037 0.057 0.398 0.043 1.23-0.051 2.179-0.23 3.983-0.295 7.51-0.266 3.563 0.036 3.806 0.057 5.448 0.424l0.663 0.151 3.24-0.18c1.781-0.101 3.269-0.158 3.298-0.122 0.081 0.072-0.456 0.115-3.21 0.259-1.281 0.072-2.312 0.151-2.282 0.173 0.037 0.028 0.265 0.122 0.523 0.201l0.463 0.151 2.113-0.208c1.163-0.122 2.187-0.216 2.283-0.216 0.14 0 0.162 0.036 0.162 0.251 0 0.144-0.044 0.266-0.088 0.288-0.051 0.014-0.633 0.057-1.289 0.101-0.972 0.057-1.31 0.050-1.877-0.036-0.501-0.079-0.721-0.093-0.81-0.036-0.081 0.050-0.736 0.079-1.804 0.079h-1.679l-0.699-0.259c-1.141-0.417-2.275-0.668-3.461-0.755-2.687-0.201-10.315 0.259-11.927 0.726-0.692 0.194-0.891 0.503-0.589 0.884 0.081 0.101 0.147 0.202 0.147 0.223s-0.376 0.043-0.824 0.043c-0.928 0-1.274 0.108-1.436 0.439-0.088 0.179-0.191 1.236-0.287 2.947l-0.044 0.906-1.046 0.086c-2.076 0.165-3.983 0.517-5.146 0.941-0.847 0.309-1.421 0.949-1.605 1.783-0.044 0.216-0.118 0.374-0.169 0.374-0.059 0-0.184 0.065-0.287 0.144-0.154 0.115-0.295 0.144-0.817 0.144-1.208 0-2.356 0.345-2.865 0.848-0.382 0.381-0.5 0.77-0.544 1.812-0.059 1.244 0.066 2.027 0.803 5.068 0.044 0.194 0.088 0.367 0.103 0.381 0.066 0.101 4.285 0.561 6.73 0.733 1.325 0.093 8.688 0.431 9.38 0.431h0.508l-0.501-0.503c-0.692-0.69-0.839-0.733-2.562-0.777l-1.377-0.028-0.052-0.187c-0.081-0.324 0.044-0.403 0.721-0.453 0.935-0.064 1.252-0.273 1.355-0.913l0.051-0.302h0.508c0.45 0 0.538-0.021 0.692-0.179 0.192-0.18 0.192-0.187 0.221-1.798 0.007-0.374 0.044-0.489 0.229-0.862 0.073-0.151 0.096-0.316 0.058-0.525l-0.051-0.302h0.456c0.243 0 0.45 0.015 0.45 0.029s-0.067 0.18-0.155 0.36c-0.192 0.424-0.324 1.79-0.324 3.35 0 1.373 0.074 1.582 0.604 1.811 0.405 0.18 1.303 0.209 1.834 0.065 0.662-0.18 1.075-0.97 0.92-1.769-0.103-0.496-0.272-0.949-0.449-1.164-0.184-0.23-0.192-0.547-0.007-0.841 0.213-0.345 0.25-0.626 0.117-1.007-0.14-0.402-0.11-0.467 0.147-0.302 0.273 0.173 0.398 0.395 0.457 0.834 0.081 0.547 0.243 0.561 0.243 0.022 0-1.165-0.515-1.653-1.914-1.818-0.81-0.101-1.377-0.079-2.946 0.108l-1.141 0.136-0.354-0.266c-0.582-0.432-1.104-0.547-3.107-0.676-2.584-0.166-4.984-0.166-5.78 0-0.574 0.122-1.104 0.345-1.104 0.474 0 0.028-0.287 0.050-0.633 0.043h-0.633l-0.213 0.252c-0.25 0.287-0.265 0.359-0.074 0.409 0.229 0.058 0.236 0.208 0.029 0.597-0.177 0.338-0.184 0.396-0.103 0.618 0.088 0.237 0.081 0.266-0.14 0.503-0.287 0.324-0.287 0.661 0 0.798 0.5 0.237 0.869 0.381 0.986 0.381 0.103 0 0.125 0.036 0.081 0.158-0.14 0.445-0.133 0.554 0.088 0.762 0.596 0.582 2.599 0.92 6.015 1.013 1.024 0.029 1.701 0.072 1.716 0.115 0 0.006 0.001 0.013 0.001 0.019 0 0.057-0.017 0.11-0.046 0.154l0.001-0.001c-0.096 0.143-1.944 0.186-3.674 0.086-1.863-0.108-2.51-0.195-2.739-0.374-0.478-0.359-0.545-0.388-0.972-0.381-0.295 0.007-0.434-0.021-0.457-0.086-0.059-0.158-0.265-0.122-0.265 0.043 0 0.122-0.051 0.144-0.324 0.144-0.405 0-0.501 0.115-0.479 0.539 0.029 0.395-0.125 0.597-0.353 0.474-0.354-0.18-0.405-0.877-0.088-1.201 0.14-0.151 0.162-0.266 0.191-1.042 0.029-0.97-0.022-1.229-0.361-1.689l-0.221-0.302 0.155-0.338c0.088-0.187 0.192-0.547 0.243-0.798 0.074-0.389 0.066-0.496-0.044-0.77-0.074-0.194-0.192-0.345-0.309-0.402-0.229-0.101-1.126-0.108-1.399-0.008-0.154 0.058-0.213 0.058-0.258-0.014-0.155-0.237 0.508-0.683 1.296-0.877 0.567-0.137 1.774-0.28 1.877-0.223 0.044 0.029-0.015 0.151-0.147 0.31-0.412 0.489-0.213 0.517 0.31 0.043 0.515-0.474 0.648-0.51 1.583-0.445 3.997 0.266 11.162 0.266 18.649-0.015 3.844-0.143 4.057-0.157 4.109-0.273 0.051-0.144-0.103-1.352-0.221-1.711-0.066-0.201-0.14-0.287-0.265-0.302-0.199-0.029-0.192-0.086-0.022 0.647 0.081 0.33 0.154 0.711 0.169 0.848l0.022 0.251-0.553 0.043c-0.302 0.029-2.459 0.057-4.793 0.072l-4.241 0.022-0.235-0.187c-0.258-0.216-0.39-0.201-0.508 0.057l-0.088 0.173h-2.726v-0.244c0-0.137-0.037-0.273-0.081-0.295-0.154-0.101-0.582 0.043-0.884 0.295l-0.316 0.259-3.166-0.051c-2.032-0.036-3.21-0.079-3.269-0.13s-0.088-0.194-0.081-0.402c0.015-0.187-0.007-0.331-0.058-0.345-0.133-0.043-0.39 0.273-0.39 0.475 0 0.295-0.081 0.345-0.648 0.388-0.758 0.057-0.898-0.007-0.898-0.417 0-0.913 0.986-1.618 2.783-1.977 0.67-0.13 3.402-0.446 3.461-0.395 0.007 0.007-0.28 0.122-0.64 0.244-0.368 0.13-0.744 0.295-0.847 0.374-0.221 0.173-0.25 0.402-0.059 0.539 0.169 0.13 0.382 0.13 0.382 0 0-0.215 0.464-0.467 1.377-0.762 0.516-0.166 1.024-0.352 1.127-0.417 0.302-0.187 3.534-0.438 6.295-0.489 3.365-0.065 6.494 0.101 9.83 0.532 0.832 0.108 1.686 0.194 1.9 0.194 0.361 0 0.42-0.021 0.618-0.244l0.229-0.251-0.045-0.755c-0.206-3.414-0.213-3.573-0.324-3.731-0.133-0.216-0.074-0.28 0.162-0.173 0.125 0.058 0.184 0.144 0.184 0.259 0 0.18 0.059 0.208 0.663 0.28 0.088 0.014 0.132 0.316 0.235 1.704 0.17 2.372 0.17 2.588-0.007 2.588-0.221 0-0.376 0.079-0.376 0.187 0 0.13 0.236 0.244 0.508 0.244 0.295 0 0.45-0.23 0.45-0.661v-0.345h1.62v-1.71c0-1.689 0-1.718-0.162-1.862-0.302-0.266-0.626-0.374-1.399-0.489-0.861-0.122-0.942-0.144-0.942-0.251 0-0.043 0.582-0.072 1.693-0.072 0.935 0 1.693 0.028 1.693 0.057 0 0.036-0.059 0.115-0.125 0.18-0.11 0.093-0.184 0.101-0.442 0.028-0.346-0.086-0.5-0.021-0.287 0.13 0.074 0.057 0.162 0.115 0.191 0.122 0.037 0.015 0.081 1.187 0.11 2.603l0.059 2.58-1.723-0.050c-1.050-0.024-1.977-0.057-2.901-0.103l0.243 0.010c-0.618-0.029-0.942-0.014-0.942 0.028s0.125 0.093 0.279 0.115c0.147 0.028 0.42 0.122 0.604 0.208 0.331 0.166 0.331 0.173 0.456 0.741 0.273 1.251 0.434 2.912 0.28 2.912-0.037 0-0.229-0.101-0.42-0.215-0.192-0.122-0.582-0.295-0.869-0.381-0.494-0.151-0.619-0.158-3.328-0.151-1.547 0.007-2.894 0.029-2.997 0.057-0.493 0.122-0.029 0.173 1.929 0.216 2.437 0.057 3.725 0.144 4.322 0.302 0.633 0.158 0.869 0.374 1.708 1.524 0.044 0.072 0.103 0.101 0.125 0.080 0.096-0.086-0.111-2.754-0.288-3.76-0.103-0.59-0.184-1.107-0.184-1.143 0-0.13 2.386 0.157 3.188 0.388 0.309 0.086 0.493 0.18 0.471 0.23-0.037 0.13-1.369 0.324-1.605 0.237-0.302-0.108-0.449-0.014-0.42 0.259l0.022 0.237 0.405-0.022c0.773-0.046 1.498-0.171 2.191-0.369l-0.071 0.017c0.405-0.108 0.715-0.158 0.751-0.122 0.11 0.108 0.302 2.070 0.346 3.587 0.074 2.365-0.169 3.968-0.648 4.363-0.332 0.273-1.023 0.482-2.165 0.669-0.788 0.122-0.965 0.173-0.979 0.28-0.015 0.072 0 0.158 0.037 0.194 0.044 0.043 0.618-0.043 1.494-0.223 1.031-0.208 1.443-0.266 1.517-0.208 0.163 0.13 1.105 1.581 1.392 2.142 0.162 0.316 0.243 0.554 0.206 0.589s-0.611 0.058-1.281 0.051l-1.208-0.021-0.022-0.396c-0.015-0.216-0.052-0.424-0.088-0.46-0.044-0.043-0.243 0.093-0.508 0.338-0.494 0.46-0.685 0.554-1.141 0.554h-0.309l-0.125-0.525c-0.074-0.338-0.14-1.049-0.17-2.049-0.037-1.071-0.074-1.524-0.132-1.502-0.052 0.015-0.096 0.396-0.118 1.064-0.037 0.97-0.044 0.992-0.059 0.316-0.029-1.272-0.279-2.574-0.611-3.206-0.331-0.64-0.847-0.992-1.443-1-0.435 0-2.497 0.525-3.218 0.82-0.324 0.137-0.707 0.266-0.832 0.295-0.25 0.051-0.302 0.158-0.177 0.388 0.051 0.086 0.007 0.216-0.154 0.474-0.125 0.202-0.663 1.179-1.186 2.179s-1.009 1.847-1.090 1.883c-0.191 0.108-0.589-0.072-0.795-0.352-0.088-0.122-0.265-0.438-0.398-0.704-0.213-0.46-0.229-0.546-0.25-1.459-0.029-1.1-0.059-1.294-0.199-1.294-0.059 0-0.125 0.187-0.192 0.518-0.11 0.625-0.361 1.308-0.619 1.682-0.103 0.158-0.235 0.51-0.295 0.79-0.027 0.092-0.072 0.299-0.114 0.506l-0.018 0.105c-0.015 0.072 0.074 0.108 0.295 0.122 0.302 0.021 0.412 0.122 0.206 0.201-0.058 0.022-1.473-0.028-3.144-0.115-1.678-0.079-4.336-0.208-5.919-0.288-7.311-0.36-11.817-0.798-12.649-1.237-0.103-0.050-0.118-0.086-0.052-0.165 0.118-0.137 0.029-0.251-0.184-0.251-0.339 0-0.42 0.251-0.391 1.214 0.029 0.992 0.067 1.072 0.67 1.258 0.53 0.166 1.075 0.237 2.444 0.331 0.648 0.051 1.207 0.115 1.252 0.151 0.037 0.043 0.022 0.065-0.051 0.065-0.17 0-0.199 0.194-0.125 0.913 0.184 1.963 1.406 3.552 3.402 4.443l0.53 0.23-0.42 0.122c-0.229 0.065-0.45 0.115-0.486 0.115-0.052 0.005-0.096 0.032-0.125 0.071l-0 0c-0.029 0.051 1.008 0.072 3.070 0.065 1.716-0.007 2.982-0.036 2.82-0.058-0.265-0.043-0.28-0.050-0.111-0.101 0.103-0.021 0.317-0.050 0.471-0.050 0.279 0 0.287 0 0.155-0.144-0.074-0.079-0.191-0.158-0.265-0.18-0.221-0.072-0.17-0.144 0.338-0.467 0.612-0.388 1.385-1.186 1.834-1.891 0.191-0.302 0.383-0.554 0.412-0.554 0.037 0 0.368 0.079 0.752 0.173 0.611 0.158 0.898 0.18 2.731 0.223 1.127 0.021 2.098 0.064 2.157 0.086 0.066 0.021 0.103 0.144 0.103 0.323 0 0.151 0.051 0.503 0.118 0.784 0.309 1.345 1.045 2.559 2.113 3.53 0.25 0.222 0.442 0.424 0.42 0.438-0.022 0.021-0.906 0.144-1.966 0.273-1.068 0.13-1.929 0.245-1.914 0.252 0.008 0.014 2.268 0.028 5.021 0.043l5.007 0.014 0.471-0.244c0.567-0.295 1.443-1.085 1.892-1.697 0.736-1.007 1.274-2.458 1.428-3.868 0.052-0.402 0.11-0.906 0.132-1.114l0.052-0.396 1.127-0.381c1.406-0.474 2.445-0.741 2.901-0.741 0.435 0 0.707-0.115 0.84-0.366 0.14-0.273 0.132-0.338-0.096-0.661-0.154-0.216-0.177-0.288-0.096-0.338 0.118-0.072 0.67-0.158 0.714-0.115 0.022 0.014 0.052 0.316 0.074 0.668 0.066 1.323 0.478 2.458 1.053 2.904 0.162 0.13 0.295 0.251 0.295 0.28s-0.288 0.13-0.641 0.223l-0.648 0.173 2.702 0.021c1.494 0.007 3.924 0.007 5.412 0 2.629-0.022 2.702-0.029 2.474-0.151-0.206-0.108-0.456-0.122-1.936-0.122-0.928 0-1.693-0.022-1.693-0.043s0.081-0.144 0.177-0.266c0.184-0.237 0.486-0.797 0.486-0.891 0-0.028-0.111 0.108-0.25 0.309-0.273 0.388-0.376 0.46-0.692 0.46-0.464 0-1.016-0.604-1.244-1.366-0.132-0.431-0.162-1.243-0.081-1.876 0.052-0.381 0.044-0.403-0.125-0.496-0.17-0.086-0.184-0.137-0.184-0.568 0-0.748 0.14-2.063 0.288-2.775 0.353-1.661 1.082-2.696 1.9-2.696 0.287 0 0.368 0.036 0.574 0.251 0.14 0.137 0.265 0.345 0.295 0.467 0.029 0.115 0.125 0.273 0.229 0.352 0.338 0.259 0.655 0.014 0.728-0.576 0.052-0.374-0.074-0.654-0.316-0.711-0.449-0.101-0.022-0.36 0.611-0.36 0.442 0 0.965-0.093 1.053-0.173 0.051-0.050 0.25-6.807 0.199-6.858-0.015-0.014-0.258 0.021-0.544 0.093-0.45 0.108-0.648 0.108-1.627 0.043-0.928-0.057-1.141-0.093-1.296-0.216-0.177-0.137-0.206-0.137-0.405-0.036-0.191 0.093-0.391 0.093-1.451 0.028-2.106-0.122-2.187-0.137-2.26-0.309-0.052-0.115-0.147-0.165-0.361-0.179-0.383-0.029-0.633 0.036-0.633 0.165 0 0.086-0.103 0.108-0.53 0.093-0.516-0.014-0.523-0.014-0.111-0.036l0.42-0.029v-0.259c0-0.158-0.059-0.324-0.14-0.409-0.103-0.115-0.162-0.36-0.229-0.964-0.044-0.453-0.066-0.834-0.044-0.855s1.112 0.108 2.415 0.302c4.55 0.654 5.765 0.827 5.971 0.827 0.191 0 0.199-0.014 0.199-0.367 0-0.309 0.022-0.36 0.133-0.338 0.206 0.036 0.25 1.122 0.066 1.603-0.073 0.194-0.154 0.381-0.184 0.41-0.029 0.021-1.855-0.115-4.057-0.309-2.209-0.194-4.027-0.33-4.049-0.309s0 0.093 0.037 0.157c0.066 0.094 0.243 0.137 0.736 0.173 4.167 0.345 7.046 0.561 7.466 0.561h0.516v-1.114c0-1.064 0.007-1.114 0.147-1.114 0.118 0 0.147-0.050 0.147-0.216v-0.222l-1.141 0.043-0.022 0.417c-0.022 0.381-0.037 0.41-0.184 0.374-0.361-0.079-7.974-1.187-8.165-1.187-0.111 0-0.206-0.043-0.213-0.093-0.008-0.043-0.045-0.848-0.096-1.775l-0.081-1.689h-2.356c-1.296-0.008-2.82 0-3.387 0.014zM40.264 2.145c0 0.259-0.022 0.295-0.236 0.388-0.39 0.151-1.458 0.251-3.299 0.295-2.695 0.065-3.828-0.079-3.828-0.503 0-0.158 0.037-0.18 0.427-0.216 0.229-0.022 1.414-0.072 2.629-0.115s2.342-0.086 2.504-0.101c0.162-0.007 0.633-0.021 1.053-0.028l0.751-0.015v0.295zM28.16 4.079c2.15 0.108 2.967 0.259 3.424 0.625 0.383 0.316 0.501 0.683 0.582 1.797 0.044 0.547 0.111 1.308 0.155 1.697 0.081 0.777 0.015 1.143-0.236 1.273-0.096 0.050-0.412 0.036-1.075-0.065-1.193-0.18-3.372-0.416-4.66-0.51s-5.736-0.093-7.252 0c-1.104 0.072-2.886 0.245-3.254 0.324-0.14 0.029-0.169 0.007-0.169-0.122 0-0.287 0.765-2.955 1.009-3.523l0.11-0.259 0.751-0.043c5.25-0.302 7.547-0.402 10.242-0.453 1.421-0.022 2.768-0.022 3.004 0.007 0.5 0.064 0.81 0.28 1.016 0.719l0.14 0.295-0.037-0.244c-0.081-0.525-0.619-0.935-1.399-1.079-0.206-0.036-1.016-0.086-1.804-0.108-0.787-0.029-1.95-0.064-2.577-0.086-0.626-0.014-1.966 0-2.982 0.043-2.533 0.101-4.102 0.28-5.692 0.647-0.743 0.173-0.751 0.173-0.751 0.028 0-0.632 6.693-1.2 11.457-0.963zM40.596 4.977v0.287h-1.178l-0.022-0.201c-0.044-0.388 0.007-0.417 0.626-0.396l0.574 0.022v0.287zM38.726 4.926c0.206 0.173 0.265 0.568 0.331 2.509l0.051 1.453-0.177 0.036c-0.464 0.093-1.016 0.108-1.067 0.036-0.029-0.043-0.111-0.797-0.184-1.675-0.074-0.87-0.147-1.776-0.169-1.998-0.044-0.467-0.044-0.467 0.626-0.482 0.309-0.007 0.464 0.029 0.589 0.122zM37.246 5.042c0.081 0.216 0.191 1.488 0.265 2.969l0.051 1.1h-0.22c-0.118 0-0.25-0.036-0.302-0.086-0.066-0.065-0.088-0.625-0.088-2.070 0-1.093 0.022-2.013 0.052-2.034 0.088-0.093 0.177-0.051 0.243 0.122zM16.527 5.394c0.022 0.014-0.007 0.115-0.051 0.223l-0.088 0.187h-0.913c-0.906 0-0.913 0-0.891-0.158 0.037-0.28 0.31-0.359 1.149-0.324 0.42 0.022 0.773 0.051 0.795 0.072zM40.449 5.66c0 0.079-0.111 0.115-0.471 0.129-0.471 0.022-0.655-0.043-0.56-0.201 0.029-0.051 0.236-0.072 0.537-0.057 0.383 0.014 0.493 0.043 0.493 0.13zM40.596 6.523v0.467l-0.442 0.021c-0.236 0.015-0.516 0-0.611-0.021-0.155-0.036-0.17-0.072-0.147-0.453 0.022-0.388 0.029-0.409 0.243-0.453 0.125-0.029 0.39-0.043 0.589-0.043l0.368 0.014v0.467zM16.16 6.192c0.022 0.057-0.104 0.632-0.28 1.28l-0.316 1.171h-0.516l-0.037-1.114c-0.037-1.013-0.051-1.114-0.177-1.136-0.206-0.043-0.265 0.108-0.265 0.683 0 0.323-0.029 0.525-0.081 0.525-0.051 0-0.066-0.237-0.051-0.697l0.022-0.705 0.221-0.043c0.125-0.028 0.493-0.050 0.832-0.057 0.464-0.007 0.618 0.014 0.648 0.093zM40.677 7.486c0.022 0.051 0.007 0.208-0.029 0.338l-0.059 0.244h-1.171l-0.022-0.237c-0.044-0.417-0.008-0.446 0.648-0.446 0.435 0 0.604 0.029 0.633 0.101zM42.333 10.778c-0.007 2.689 0.015 2.804 0.346 2.222 0.154-0.266 0.162-0.352 0.162-2.372 0-1.15 0.029-2.093 0.058-2.093 0.096 0 0.163 1.697 0.163 4.069v2.114l-0.177 0.108c-0.096 0.065-0.397 0.151-0.67 0.194-0.544 0.086-0.626 0.050-0.626-0.309 0-0.108-0.051-0.23-0.11-0.28-0.088-0.072-0.111-0.050-0.147 0.086-0.029 0.101-0.037 0.338-0.022 0.532l0.022 0.352 0.92-0.022c0.596-0.021 0.972-0.065 1.075-0.122 0.221-0.137 0.25-0.496 0.25-3.271 0-1.323 0.022-2.674 0.052-3.005l0.044-0.596 0.287 0.036c0.154 0.022 0.412 0.065 0.574 0.086l0.295 0.043v1.351c0 0.978 0.029 1.488 0.118 1.862 0.066 0.28 0.147 0.51 0.177 0.51 0.059 0 0.103-0.453 0.191-1.797 0.029-0.446 0.074-0.697 0.103-0.611 0.051 0.144 0.051 0.503-0.044 3.429l-0.044 1.416-0.346 0.122-0.486 0.173c-0.132 0.058-0.132 0.065 0.037 0.065 0.22 0.007 3.453-0.389 4.042-0.496 0.214-0.041 0.463-0.067 0.717-0.072l0.005-0c0.265 0 0.316 0.021 0.316 0.144 0 0.201-0.177 0.259-1.325 0.424-0.545 0.086-2.246 0.345-3.784 0.582-1.532 0.237-2.813 0.417-2.842 0.396-0.037-0.022-0.279-0.374-0.552-0.791l-0.493-0.755 0.029-0.841 0.022-0.848-2.871-0.072-0.022-0.561-0.022-0.554h2.651l0.022 0.482c0.015 0.395 0.044 0.489 0.154 0.51s0.125-0.051 0.125-0.697v-0.726l-1.451-0.014-1.458-0.022-0.022-0.56-0.022-0.554h2.511v1.013l0.206-0.021 0.199-0.022 0.022-0.668 0.022-0.661h-1.48c-1.186 0-1.473-0.021-1.473-0.093 0-0.101 1.112-0.194 2.334-0.194 0.523 0 0.544-0.007 0.618-0.201 0.037-0.108 0.177-0.367 0.31-0.575l0.235-0.381 1.075 0.043v2.494zM14.304 8.507c0.022 0.065 0.044 0.259 0.044 0.438 0 0.266-0.022 0.316-0.125 0.295-0.177-0.028-0.243-0.848-0.074-0.848 0.059 0 0.133 0.051 0.154 0.115zM40.817 8.464c0.029 0.043-0.059 0.201-0.184 0.367l-0.236 0.287-1.053-0.043v-0.251c0-0.194 0.044-0.266 0.184-0.338 0.22-0.108 1.222-0.122 1.288-0.022zM47.281 9.945c0.008 1.092 0.037 1.474 0.118 1.559 0.052 0.065 0.125 0.101 0.162 0.080s0.066-0.453 0.066-0.964c0-0.942 0.029-1.15 0.17-1.15 0.081 0 0.007 4.45-0.088 4.795-0.074 0.295-0.449 0.453-1.053 0.453h-0.501v-0.381c0-0.712 0.163-5.693 0.191-5.787 0.022-0.065 0.155-0.086 0.471-0.072l0.449 0.021 0.015 1.445zM49.166 8.794c0.015 0.015 0.022 0.654 0.015 1.416-0.015 1.632 0.007 1.805 0.258 1.747l0.177-0.043v1.143c0 1.107-0.007 1.15-0.162 1.258-0.177 0.122-0.832 0.158-0.898 0.057-0.029-0.043-0.074-5.284-0.052-5.643 0.008-0.051 0.597 0.007 0.663 0.065zM37.541 9.434c0.118 0.137 0.154 0.928 0.059 1.236-0.059 0.208-0.324 0.453-0.493 0.453-0.037 0-0.066-0.086-0.059-0.201 0.015-0.18-0.008-0.195-0.317-0.23-0.235-0.029-0.338-0.072-0.353-0.158-0.022-0.101 0.044-0.122 0.331-0.144l0.354-0.021 0.037-0.453c0.022-0.287 0.074-0.474 0.147-0.518 0.147-0.093 0.191-0.086 0.295 0.036zM40.265 14.107v0.898h-2.356v-1.797h2.356v0.899zM3.238 14.926c0.177 0.173 0.213 0.273 0.213 0.546s-0.037 0.374-0.213 0.547c-0.295 0.288-0.604 0.28-0.906-0.007-0.125-0.122-0.213-0.237-0.192-0.252 0.015-0.021 0.162-0.050 0.324-0.079 0.582-0.086 0.596-0.417 0.022-0.503-0.338-0.057-0.353-0.108-0.095-0.309 0.279-0.215 0.589-0.194 0.847 0.058zM9.12 14.861c0.787 0.043 2.989 0.137 4.889 0.216 3.607 0.151 3.725 0.165 3.85 0.482 0.096 0.251-0.361 0.316-0.611 0.086-0.177-0.165-0.295-0.173-5.994-0.424-1.031-0.043-2.812-0.13-3.954-0.18-1.524-0.072-2.142-0.079-2.334-0.021-0.324 0.101-0.405 0.036-0.22-0.166 0.14-0.151 0.176-0.151 1.539-0.108 0.773 0.028 2.047 0.079 2.834 0.115zM20.982 15.717c0.589 0.575-0.081 1.517-0.854 1.201-0.258-0.108-0.478-0.424-0.478-0.69 0-0.201 0.192-0.554 0.346-0.64 0.074-0.043 0.273-0.079 0.45-0.079 0.258 0 0.361 0.043 0.537 0.208zM5.873 15.94c0.405 0 0.729-0.037 0.818-0.086 0.117-0.072 0.184-0.065 0.361 0.036 0.265 0.151 1.649 0.259 1.73 0.13 0.066-0.101 0.361-0.101 0.464 0 0.044 0.043 0.449 0.122 0.899 0.18 0.765 0.101 0.839 0.101 1.038-0.022 0.206-0.115 0.235-0.115 0.464-0.007 0.361 0.187 2.010 0.259 2.312 0.101 0.213-0.108 0.236-0.101 0.434 0.051 0.191 0.143 0.31 0.157 1.193 0.186 0.655 0.015 1.016-0.007 1.068-0.057 0.060-0.049 0.137-0.078 0.22-0.079h0c0.096 0 0.133 0.043 0.111 0.158-0.022 0.158-0.059 0.165-0.795 0.187-1.612 0.050-11.184-0.46-11.331-0.597-0.154-0.144 0.022-0.352 0.213-0.251 0.074 0.043 0.442 0.072 0.803 0.072zM43.983 16.781c-0.11 0.115-0.279 0.345-0.39 0.518-0.213 0.359-0.316 0.295-0.118-0.080 0.155-0.302 0.471-0.632 0.596-0.632 0.066 0 0.029 0.079-0.088 0.194zM3.142 17.068c0.198 0.122 0.449 0.618 0.456 0.884 0.008 0.92-0.854 1.517-1.347 0.935-0.405-0.467-0.442-1.172-0.081-1.632 0.302-0.388 0.567-0.438 0.972-0.187zM7.751 17.378c0.537 0.036 0.707 0.028 0.876-0.064 0.177-0.101 0.22-0.101 0.405 0.007 0.11 0.057 0.56 0.151 1.031 0.201 0.743 0.072 0.846 0.072 0.964-0.029 0.162-0.144 0.295-0.144 0.457 0s2.223 0.244 2.304 0.108c0.081-0.122 0.331-0.093 0.53 0.057 0.265 0.201 1.752 0.288 2.099 0.122 0.331-0.157 0.449-0.151 0.42 0.043-0.022 0.158-0.052 0.166-0.942 0.187-1.966 0.051-11.015-0.438-11.191-0.603-0.17-0.158 0.015-0.295 0.258-0.187 0.265 0.122 1.222 0.108 1.517-0.014 0.221-0.093 0.272-0.093 0.427 0.007 0.111 0.072 0.45 0.137 0.847 0.166zM20.989 17.996c0.302 0.28 0.427 0.589 0.427 1.085 0 0.561-0.221 0.935-0.663 1.158-0.773 0.381-1.546-0.201-1.546-1.165 0-0.474 0.088-0.726 0.354-1.006 0.273-0.273 0.434-0.331 0.847-0.302 0.265 0.014 0.405 0.072 0.582 0.23zM27.836 18.039c0.037 0.251 0.331 0.266 0.398 0.021 0.044-0.173 0.074-0.187 0.39-0.165 0.302 0.021 0.339 0.043 0.361 0.208 0.029 0.244 0.28 0.324 0.405 0.13 0.111-0.173 0.25-0.173 0.53-0.007 0.14 0.086 0.221 0.194 0.221 0.295 0 0.244 0.221 0.36 0.376 0.208 0.117-0.115 0.147-0.108 0.405 0.094 0.235 0.179 0.272 0.251 0.243 0.416-0.059 0.259 0.132 0.432 0.309 0.288 0.11-0.086 0.154-0.065 0.375 0.187 0.184 0.215 0.243 0.323 0.206 0.453-0.074 0.288 0.022 0.467 0.229 0.424 0.162-0.028 0.206 0.015 0.368 0.316 0.162 0.316 0.169 0.367 0.074 0.518-0.14 0.216-0.044 0.446 0.184 0.446 0.147 0 0.184 0.057 0.28 0.409 0.103 0.388 0.103 0.424-0.022 0.51-0.17 0.122-0.088 0.482 0.103 0.482 0.235 0 0.316 0.841 0.088 0.985-0.169 0.1-0.162 0.366 0.008 0.489 0.096 0.064 0.125 0.194 0.125 0.496 0 0.367-0.015 0.41-0.184 0.474-0.213 0.079-0.243 0.316-0.074 0.51 0.103 0.108 0.103 0.166 0.015 0.503-0.074 0.302-0.133 0.389-0.236 0.389-0.081 0-0.184 0.079-0.236 0.18-0.074 0.144-0.066 0.194 0.029 0.302 0.111 0.122 0.111 0.158-0.051 0.496-0.155 0.309-0.199 0.352-0.346 0.316-0.229-0.051-0.368 0.201-0.243 0.438 0.081 0.144 0.066 0.194-0.14 0.453-0.258 0.316-0.302 0.338-0.434 0.208-0.147-0.144-0.332 0.072-0.28 0.345 0.044 0.194 0.015 0.251-0.206 0.416-0.302 0.216-0.316 0.223-0.464 0.079-0.103-0.101-0.125-0.101-0.243 0-0.059 0.054-0.096 0.132-0.096 0.219 0 0.024 0.003 0.048 0.008 0.071l-0-0.002c0.029 0.151-0.015 0.201-0.287 0.316-0.339 0.151-0.434 0.137-0.434-0.036 0-0.18-0.324-0.094-0.354 0.093-0.029 0.216-0.154 0.295-0.486 0.324-0.258 0.021-0.295 0-0.338-0.158-0.059-0.245-0.31-0.245-0.368 0-0.052 0.208-0.184 0.251-0.53 0.157-0.192-0.043-0.25-0.1-0.279-0.273-0.052-0.28-0.273-0.316-0.368-0.064-0.059 0.144-0.111 0.18-0.206 0.144-0.066-0.029-0.213-0.086-0.324-0.122-0.177-0.058-0.206-0.115-0.206-0.345 0-0.338-0.177-0.432-0.368-0.201l-0.132 0.157-0.273-0.201c-0.25-0.187-0.272-0.23-0.229-0.474 0.059-0.352-0.103-0.518-0.316-0.324-0.14 0.115-0.154 0.108-0.368-0.187-0.243-0.324-0.265-0.403-0.163-0.561 0.111-0.173-0.044-0.374-0.243-0.324-0.147 0.036-0.192-0.007-0.338-0.36-0.133-0.324-0.147-0.424-0.074-0.51 0.118-0.136 0.022-0.395-0.147-0.395-0.184 0-0.368-0.733-0.236-0.935 0.096-0.151 0.037-0.432-0.096-0.432-0.118 0-0.213-0.862-0.11-0.963 0.096-0.093 0.096-0.381 0-0.438-0.103-0.064 0-0.913 0.125-1.049 0.074-0.086 0.088-0.202 0.059-0.374-0.044-0.208-0.022-0.266 0.118-0.367 0.221-0.151 0.442-0.144 0.714 0.007 0.199 0.115 0.236 0.115 0.545 0 0.604-0.23 0.795-0.503 1.826-2.674 0.53-1.107 1.016-2.056 1.082-2.106 0.184-0.129 0.302-0.108 0.332 0.072zM6.021 18.549c0.052 0.13 0.177 0.201 0.501 0.288 0.567 0.158 2.025 0.338 2.894 0.36l0.699 0.014 0.022-0.36c0.029-0.402 0.081-0.489 0.236-0.395 0.088 0.057 0.088 0.101 0.015 0.316-0.066 0.179-0.074 0.295-0.022 0.388 0.066 0.122 0.206 0.144 1.303 0.18 1.782 0.072 3.122 0.057 3.439-0.029 0.154-0.036 0.39-0.166 0.523-0.288 0.302-0.251 0.338-0.259 0.338-0.043 0 0.208-0.162 0.36-0.552 0.532-0.258 0.108-0.559 0.122-2.54 0.122-1.244 0-2.636-0.036-3.129-0.086-1.649-0.166-3.439-0.445-3.711-0.568-0.287-0.137-0.368-0.324-0.229-0.489 0.118-0.144 0.14-0.137 0.214 0.057zM44.38 19.426c-0.077 0.425-0.142 0.953-0.181 1.488l-0.003 0.051c-0.044 0.647-0.066 0.783-0.125 0.647-0.118-0.273-0.096-1.488 0.037-1.97 0.132-0.46 0.346-1.006 0.383-0.963 0.015 0.014-0.037 0.352-0.111 0.747zM43.365 19.793c-0.081 0.432-0.17 1.056-0.199 1.388-0.037 0.453-0.066 0.568-0.125 0.474-0.111-0.201-0.008-1.589 0.154-2.092 0.288-0.899 0.361-0.797 0.17 0.23zM3.054 19.376c0.611-0.044 0.677 0.028 0.243 0.251-0.339 0.18-0.891 0.13-1.134-0.093-0.229-0.208-0.177-0.302 0.118-0.202 0.125 0.043 0.471 0.058 0.773 0.043zM42.179 19.908c-0.081 0.338-0.155 0.841-0.155 1.122-0.007 0.51-0.081 0.668-0.169 0.352-0.14-0.503 0.066-1.718 0.339-2.049 0.14-0.166 0.14-0.044-0.015 0.575zM40.964 19.692c-0.074 0.338-0.184 1.301-0.184 1.625 0 0.266-0.015 0.316-0.088 0.237-0.147-0.137-0.118-1.194 0.037-1.646 0.133-0.367 0.31-0.525 0.236-0.216zM6.013 19.908c0.147 0.144 0.111 0.546-0.066 0.632-0.383 0.201-0.78-0.201-0.545-0.546 0.125-0.187 0.456-0.238 0.611-0.086zM14.127 19.958c0 0.079-0.029 0.165-0.074 0.187-0.037 0.021-0.074 0.237-0.074 0.467 0 0.489-0.088 0.582-0.332 0.359-0.206-0.194-0.287-0.561-0.184-0.834 0.103-0.252 0.191-0.316 0.464-0.316 0.147 0 0.199 0.036 0.199 0.137zM39.867 20.771c-0.029 0.366-0.066 0.676-0.088 0.697-0.14 0.137-0.213-0.547-0.103-0.992 0.147-0.604 0.25-0.453 0.191 0.295zM8.789 21.943c1.097 0.057 2.128 0.13 2.305 0.151l0.309 0.036v0.791c0 0.582-0.022 0.783-0.088 0.783-0.375-0.007-5.522-0.568-5.559-0.603-0.074-0.072-0.147-0.877-0.11-1.143l0.037-0.209 0.56 0.043c0.309 0.021 1.458 0.093 2.547 0.151zM16.188 23.675c1.59 0.13 4.918 0.18 5.581 0.080 0.309-0.043 0.383-0.036 0.383 0.050 0 0.151-0.31 0.179-2.319 0.23-1.9 0.050-3.461-0.022-5.007-0.23-1.348-0.18-1.731-0.252-1.731-0.345 0-0.064 0.184-0.064 0.795 0.007 0.434 0.043 1.465 0.137 2.297 0.208zM6.44 23.596c0.044 0.015 0.103 0.23 0.125 0.482 0.051 0.532 0.316 1.323 0.641 1.912 0.626 1.15 1.723 2.077 3.092 2.624l0.478 0.187-1.016 0.007c-0.957 0-1.038-0.014-1.48-0.208-1.936-0.856-3.019-2.293-3.114-4.155-0.022-0.403-0.022-0.777 0-0.834 0.029-0.079 0.162-0.093 0.618-0.072 0.317 0.021 0.612 0.043 0.655 0.057zM8.421 24.258c0.279 1.222 1.127 2.049 2.194 2.157 0.611 0.057 1.73-0.266 2.186-0.64 0.184-0.151 0.442-0.503 0.442-0.596 0-0.057-0.162-0.194-0.361-0.309-0.309-0.187-0.67-0.561-0.67-0.69 0-0.115 0.361-0.022 0.508 0.129 0.258 0.266 1.009 0.561 1.627 0.64 0.626 0.072 1.87 0.416 1.671 0.467-0.066 0.014-0.353-0.007-0.64-0.051-0.28-0.043-0.803-0.079-1.156-0.079h-0.655l-0.229 0.316c-0.405 0.561-1.281 1.013-2.12 1.1-1.068 0.108-2.4-0.632-2.864-1.589-0.184-0.374-0.354-1.15-0.272-1.229 0.118-0.122 0.265 0.036 0.339 0.374z"></path>
<path d="M20.047 15.832c-0.324 0.316-0.221 0.432 0.397 0.438 0.508 0 0.53-0.007 0.53-0.165 0-0.424-0.589-0.597-0.927-0.273zM19.465 18.953c-0.059 0.108 0.022 0.222 0.154 0.222 0.066 0 0.103-0.050 0.088-0.122-0.029-0.144-0.177-0.202-0.243-0.101zM29.92 20.096c1.406 0.668 2.246 1.632 2.592 2.998 0.081 0.295 0.14 0.438 0.154 0.345 0.037-0.244-0.184-1.014-0.442-1.531-0.331-0.676-1.045-1.344-1.833-1.711-0.339-0.158-0.714-0.309-0.839-0.331-0.118-0.029 0.044 0.079 0.368 0.23zM27.785 20.642c-0.603 0.144-1.075 0.41-1.59 0.906-1.075 1.035-1.598 2.623-1.399 4.256 0.147 1.251 0.596 2.221 1.377 2.991 2.003 1.962 4.955 0.841 5.78-2.193 0.22-0.791 0.22-2.070 0-2.854-0.25-0.906-0.633-1.589-1.223-2.164-0.574-0.561-1.090-0.841-1.759-0.963-0.53-0.093-0.707-0.093-1.186 0.021zM29.39 21.073c0.972 0.395 1.723 1.236 2.135 2.408 0.442 1.237 0.339 2.811-0.258 4.012-0.339 0.676-1.046 1.395-1.664 1.689-0.442 0.216-0.552 0.237-1.156 0.237s-0.714-0.021-1.148-0.237c-0.891-0.424-1.561-1.229-1.944-2.322-0.295-0.848-0.346-2.071-0.118-2.948 0.376-1.466 1.207-2.466 2.429-2.904 0.442-0.158 1.237-0.13 1.723 0.064z"></path>
<path d="M28.676 21.756c-0.213 0.338 1.016 1.129 1.502 0.978 0.324-0.101 0.081-0.36-0.744-0.819-0.412-0.224-0.685-0.28-0.758-0.158zM26.32 23.251c-0.383 0.776-0.633 1.826-0.493 2.034 0.066 0.093 0.11 0.086 0.346-0.036 0.316-0.166 0.501-0.525 0.626-1.215 0.147-0.862-0.177-1.394-0.478-0.783zM28.632 23.158c-0.044 0.057-0.074 0.187-0.059 0.295 0.015 0.137-0.029 0.216-0.192 0.316-0.199 0.13-0.229 0.13-0.39 0.028-0.398-0.251-0.736 0.224-0.391 0.539 0.133 0.115 0.147 0.194 0.103 0.539-0.029 0.23-0.081 0.409-0.11 0.409-0 0-0.001 0-0.001 0-0.036 0-0.065-0.029-0.065-0.064v-0c0-0.115-0.28-0.166-0.442-0.079-0.199 0.101-0.199 0.467-0.008 0.575 0.206 0.101 0.28 0.093 0.449-0.072 0.14-0.137 0.155-0.137 0.192-0.022 0.147 0.446 0.31 0.704 0.545 0.848 0.405 0.259 0.655 0.28 1.038 0.086l0.339-0.165 0.081 0.201c0.051 0.144 0.125 0.201 0.25 0.201 0.088 0 0.236 0.022 0.324 0.043 0.287 0.072 0.544-0.237 0.692-0.834 0.125-0.525 0.125-0.755 0-0.683-0.037 0.021-0.088 0.144-0.118 0.273-0.066 0.324-0.361 0.956-0.471 1.021-0.059 0.036-0.081 0.028-0.044-0.022 0.022-0.043 0.007-0.158-0.037-0.259-0.066-0.136-0.147-0.186-0.309-0.186-0.177 0-0.206-0.022-0.162-0.13 0.029-0.065 0.096-0.252 0.133-0.41 0.044-0.158 0.088-0.295 0.088-0.302 0.008-0.015 0.111 0.021 0.236 0.064 0.295 0.108 0.464-0.007 0.464-0.309 0-0.273-0.316-0.424-0.515-0.244-0.17 0.15-0.206 0.136-0.258-0.13-0.066-0.323-0.361-0.733-0.626-0.884-0.154-0.093-0.206-0.166-0.177-0.244 0.074-0.166 0.044-0.374-0.059-0.439-0.147-0.093-0.397-0.072-0.5 0.036zM29.272 24.797c0.221 0.201 0.221 0.532 0.008 0.755-0.324 0.338-0.81 0.115-0.81-0.374 0-0.482 0.457-0.704 0.803-0.381z"></path>
<path d="M29.736 23.604c-0.162 0.187-0.007 0.489 0.265 0.518 0.177 0.014 0.243-0.015 0.309-0.166 0.125-0.259 0-0.467-0.273-0.467-0.118 0-0.25 0.051-0.302 0.115zM27.483 26.688c-0.088 0.352 0.125 0.554 0.457 0.41 0.11-0.058 0.177-0.144 0.177-0.252 0-0.222-0.133-0.338-0.383-0.338-0.154 0-0.213 0.043-0.25 0.18zM28.647 26.954c-0.118 0.115-0.111 0.381 0.015 0.482 0.059 0.050 0.199 0.079 0.316 0.064 0.376-0.043 0.302-0.632-0.081-0.632-0.088 0-0.198 0.036-0.25 0.086zM26.769 27.665c-0.11 0.064-0.118 0.093-0.044 0.187 0.147 0.165 1.053 0.589 1.377 0.64 0.361 0.057 0.435-0.043 0.266-0.331-0.221-0.359-1.274-0.69-1.598-0.496z"></path>
<path d="M24.854 28.607c0.339 0.625 0.987 1.33 1.473 1.582 0.633 0.338 1.156 0.445 2.12 0.453 0.884 0 0.899 0 1.451-0.273 0.655-0.309 1.215-0.855 1.59-1.538 0.339-0.619 0.295-0.619-0.132 0-0.869 1.272-1.914 1.79-3.343 1.668-1.458-0.122-2.342-0.676-3.092-1.927-0.155-0.266-0.302-0.482-0.316-0.482s0.096 0.23 0.25 0.518zM18.722 9.83c-1.156 0.259-2.246 0.791-2.563 1.258-0.177 0.266-0.147 0.589 0.074 0.791 0.265 0.244 0.64 0.352 0.84 0.251 0.213-0.108 0.169-0.187-0.221-0.374-0.434-0.215-0.471-0.416-0.133-0.755 0.398-0.409 1.163-0.726 2.931-1.229l0.257-0.072h-0.295c-0.162 0-0.566 0.057-0.89 0.129zM22.815 9.757c-0.302 0.036-0.633 0.093-0.736 0.115-0.544 0.151 2.327 0.345 5.044 0.345 2.039 0 3.49-0.058 3.402-0.144-0.015-0.014-0.604-0.101-1.31-0.18-1.436-0.173-5.404-0.251-6.398-0.137zM26.518 10.527c-0.655 0.022-0.832 0.051-0.832 0.13 0 0.137 0.103 0.151 1.428 0.108 1.053-0.028 1.186-0.050 1.208-0.165 0.022-0.108-0.037-0.122-0.478-0.108-0.273 0.007-0.876 0.028-1.326 0.036zM29.883 10.678c0 0.043 0.125 0.115 0.272 0.165 0.427 0.137 1.009 0.748 1.119 1.179 0.125 0.496 0.345 0.97 0.456 0.97 0.118 0 0.052-0.783-0.103-1.2-0.103-0.287-0.096-0.309 0.044-0.402 0.147-0.093 0.147-0.108 0.037-0.28-0.192-0.28-0.619-0.446-1.252-0.474-0.361-0.022-0.574 0-0.574 0.043zM25.93 11.030c-0.147 0.021-0.243 0.072-0.243 0.137 0 0.086 0.206 0.101 1.208 0.101 1.266 0 1.443-0.022 1.443-0.187 0-0.079-0.198-0.101-1.082-0.086-0.604 0-1.2 0.022-1.326 0.036zM26.887 11.462c-1.171 0.022-1.2 0.029-1.2 0.18s0.015 0.151 0.788 0.108c0.427-0.028 1.023-0.050 1.326-0.050 0.478 0 0.544-0.014 0.523-0.122-0.015-0.072-0.074-0.13-0.133-0.13s-0.648 0.007-1.303 0.014zM26.261 11.965c-0.442 0.021-0.574 0.050-0.574 0.129 0 0.093 0.213 0.108 1.325 0.108 1.274 0 1.326-0.007 1.326-0.144s-0.044-0.144-0.751-0.13c-0.42 0.007-1.016 0.028-1.325 0.036zM30.325 12.878c0 0.151 0.154 0.237 0.523 0.28 0.184 0.022 0.486 0.108 0.677 0.187s0.346 0.122 0.346 0.086c0-0.144-0.383-0.381-0.678-0.416-0.193-0.027-0.366-0.075-0.53-0.142l0.015 0.005c-0.25-0.13-0.353-0.13-0.353 0zM35.862 13.654c-0.059 0.057-0.088 0.345-0.088 0.826 0 0.704 0.008 0.748 0.17 0.82 0.117 0.050 0.228 0.050 0.368 0 0.199-0.072 0.199-0.086 0.096-0.237-0.066-0.093-0.118-0.309-0.118-0.496 0-0.28 0.037-0.367 0.191-0.489 0.221-0.173 0.184-0.273-0.163-0.41-0.302-0.122-0.345-0.122-0.456-0.014zM20.172 13.863c-0.787 0.115-0.736 0.18 0.192 0.23 1.517 0.079 2.599 0.359 3.019 0.784 0.155 0.157 0.273 0.381 0.346 0.668 0.11 0.431 0.353 2.005 0.456 2.947 0.088 0.791 0.163 0.324 0.17-1.042 0.007-2.192-0.383-3.12-1.487-3.486-0.457-0.151-1.973-0.208-2.695-0.101zM25.885 15.422c-0.213 0.216-0.265 0.518-0.088 0.518 0.213 0 0.471-0.166 0.552-0.367 0.17-0.388-0.14-0.489-0.464-0.151zM29.552 15.422c-0.831 0.244-0.751 0.266 0.884 0.251 1.635-0.007 2.047-0.072 1.62-0.244-0.118-0.051-0.633-0.101-1.142-0.108-0.721-0.022-1.016 0-1.362 0.101zM27.711 16.005c-0.316 0.137-0.655 0.474-0.736 0.733-0.088 0.259 0.030 0.245 0.317-0.028 0.155-0.151 0.457-0.36 0.67-0.467 0.22-0.108 0.39-0.23 0.39-0.266-0.015-0.122-0.339-0.115-0.64 0.029zM43.683 2.941c1.596 1.481 2.54 3.048 2.54 3.048l-5.333-0.909v-3.408l-14.476 0.508s3.441-1.291 5.841-1.778c4.304-0.874 8.208-0.447 11.429 2.54z"></path>
</symbol>
</defs>
</svg>
